<svg id="Capa_1" enable-background="new 0 0 497.5 497.5" height="512" viewBox="0 0 497.5 497.5" width="512" xmlns="http://www.w3.org/2000/svg"><g><g><path d="m266.324 100.255c0-17.652-2.383-35.085-12.868-47.659-13.298-15.947-33.317-26.096-55.706-26.096-40.041 0-72.5 32.459-72.5 72.5 0 10.6 2.275 20.668 6.363 29.744 3.646 8.094 10.807 14.984 17.01 21.171 13.115 13.082 30.438 18.383 50.426 18.383 40.04 0 67.275-28.002 67.275-68.043z" fill="#b3e59f"/><path d="m252.34 51.3c3.8 8.8 5.91 18.5 5.91 28.7 0 6.15-.772 12.117-2.216 17.818-.493 1.948-2.123 3.41-4.113 3.694-19.106 2.73-36.299 10.065-50.531 21.676-1.173.957-2.7 1.372-4.182 1.064-3.499-.727-7.115-1.108-10.799-1.133l-.52-.01c-14.571 0-28.316 4.591-39.794 13.116-.031.009-.061.017-.091.026-3.966 1.14-7.022-3.476-4.386-6.651 12.876-15.508 20.631-35.417 20.631-57.101 0-11.38-2.13-22.46-6.21-32.79-18.629 13.111-30.789 34.781-30.789 59.291 0 10.211 2.124 19.92 5.935 28.727-.008-.009-.017-.018-.025-.027.223.448.178.499.753 1.663 11.641 25.222 37.347 42.615 67.056 42.127 38.414-.631 70-31.687 71.242-70.086.621-19.209-6.234-36.797-17.871-50.104z" fill="#95d6a4"/><path d="m142.261 72c0-20.102-5.192-37.793-18.406-50.926-13.108-13.025-31.166-21.074-51.105-21.074-40.041 0-72.5 32.459-72.5 72.5 0 13.764 3.836 26.632 10.496 37.594 12.716 20.927 37.323 31.47 63.6 31.47 40.04 0 67.915-29.523 67.915-69.564z" fill="#df646e"/><path d="m145.25 72.5c0 40.04-32.46 72.5-72.5 72.5-26.51 0-49.7-14.23-62.34-35.48 12.82 11.49 29.76 18.48 48.34 18.48 40.04 0 72.5-32.46 72.5-72.5 0-13.53-3.71-26.19-10.16-37.02 14.83 13.27 24.16 32.56 24.16 54.02z" fill="#dc4955"/><path d="m482.09 261c0-22.694-7.267-42.952-23.592-56.246-12.478-10.162-28.402-16.254-45.749-16.254-40.041 0-72.5 32.459-72.5 72.5 0 15.602 4.928 30.053 13.313 41.881 13.134 18.527 38.748 24.438 63.187 24.438 40.042 0 65.341-26.278 65.341-66.319z" fill="#df646e"/><path d="m466.099 310.079c.555-.795.706-.294 5.867-7.276 8.357-11.816 13.284-26.23 13.284-41.803 0-25.13-12.79-47.28-32.22-60.28 7.72 11.52 12.22 25.37 12.22 40.28 0 16.57-5.568 31.835-14.923 44.044-1.187 1.549-3.178 2.255-5.078 1.811-6.644-1.552-13.511-2.355-20.499-2.355-22.03 0-42.216 8.002-57.822 21.248-1.499 1.272-3.608 1.544-5.383.698-3.158-1.507-6.191-3.233-9.075-5.166 23.916 35.876 78.149 46.069 113.629 8.799z" fill="#dc4955"/><path d="m494.261 373.5c0-20.102-5.192-37.793-18.406-50.926-13.107-13.026-31.166-21.074-51.104-21.074-40.041 0-72.5 32.459-72.5 72.5 0 13.764 3.836 26.632 10.496 37.594 12.716 20.927 37.323 31.47 63.6 31.47 40.039 0 67.914-29.523 67.914-69.564z" fill="#faf8f8"/><path d="m497.25 374c0 40.04-32.46 72.5-72.5 72.5-26.51 0-49.7-14.23-62.34-35.48 12.82 11.49 29.76 18.48 48.34 18.48 40.04 0 72.5-32.46 72.5-72.5 0-13.53-3.71-26.19-10.16-37.02 14.83 13.27 24.16 32.56 24.16 54.02z" fill="#f0e9e6"/><path d="m494.261 72c0-20.102-5.192-37.793-18.406-50.926-13.108-13.025-31.166-21.074-51.105-21.074-40.041 0-72.5 32.459-72.5 72.5 0 13.764 3.836 26.632 10.496 37.594 12.716 20.927 37.323 31.47 63.6 31.47 40.04 0 67.915-29.523 67.915-69.564z" fill="#faf8f8"/><path d="m497.25 72.5c0 40.04-32.46 72.5-72.5 72.5-26.51 0-49.7-14.23-62.34-35.48 12.82 11.49 29.76 18.48 48.34 18.48 40.04 0 72.5-32.46 72.5-72.5 0-13.53-3.71-26.19-10.16-37.02 14.83 13.27 24.16 32.56 24.16 54.02z" fill="#f0e9e6"/><path d="m336.686 422.912-41.707-24.71-91.628-.219-15.884 4.811-13.139 53.039 35.987 41.667h77.672z" fill="#faf8f8"/><path d="m218.406 354.976-12.754 23.117-2.456 21.225c-.94 8.061 1.261 16.232 6.353 22.552 6.46 8.019 18.309 16.414 39.601 16.414 21.29 0 33.138-8.393 39.599-16.411 2.637-3.272 4.498-7.041 5.55-11.034.98-3.721-3.936-8.966-4.39-12.856l.098-44.578z" fill="#f2d1a5"/><path d="m205.647 378.093 2.676-23.117 81.686-1.569 4.968 44.796 3.574 7.234-4.258 5.401-7.236-2.175c-4.415-.978-3.965-7.1-4.461-10.491l-.803-7.241c-.338-3.049-3.494-4.899-6.34-3.755-8.843 3.554-17.639 5.351-26.302 5.351-14.266 0-28.893-4.852-43.504-14.434z" fill="#f2bb88"/><path d="m289.309 492.14c11.763-22.433 17.164-51.147 19.615-70.898.415-3.345-1.649-6.497-4.877-7.468l-9.755-2.935c.984-3.722 1.261-7.636.807-11.528l-.123-1.107 15.827 4.76 47.249 14.212c19.51 5.868 10.755 65.035 10.755 65.035l-69.285 15.289h-13.02z" fill="#f0e9e6"/><path d="m102.735 459.418 8.727 29.86 87.318 8.222h13.02l-2.807-5.36c-15.634-29.815-20.033-70.743-21.202-86.954-.061-.808-.161-1.607-.323-2.392l-47.318 14.335c-19.458 5.898-33.931 22.255-37.415 42.289z" fill="#f0e9e6"/><path d="m93.421 497.5c-4.787 0-8.411-4.326-7.571-9.039l5.511-30.935c4.26-24.532 21.725-44.227 45.565-51.402l27.501-8.269c5.654-1.7 11.437 2.269 11.86 8.159 1.413 19.652 6.229 60.475 22.492 91.486z" fill="#f5de46"/><path d="m341.595 254.42h5.149c12.317 0 22.302 10.019 22.302 22.379 0 17.048-13.772 30.867-30.761 30.867h-177.646c-16.989 0-30.761-13.82-30.761-30.867 0-12.359 9.985-22.379 22.302-22.379h5.149z" fill="#f2bb88"/><path d="m341.595 254.42c0 39.152-.756 52.011-16.683 74.142-21.968 30.524-49.333 51.256-75.451 51.256s-53.483-20.732-75.451-51.256c-13.304-18.486-16.022-30.504-16.557-56.781-.105-5.18 3.522-13.18 3.522-19.627l-12.951-87.571 202.255 27.096z" fill="#f2d1a5"/><path d="m350.281 191.68-8.605 62.191c-3.714-9.467-10.651-18.303-19.449-24.055-28.985-18.941-59.469 6.814-106.142-34.645-.008 0-.015-.008-.015-.015-.684-.608-1.369-1.23-2.061-1.861-2.038-1.876-5.322-1.069-6.245 1.546-.823 2.338-1.684 4.614-2.607 6.821-4.806 11.474-11.182 20.979-21.779 27.231-12.712 7.506-23.44 35.906-25.924 42.889-.1-5.183-.123-10.92-.123-17.365l-8.713-84.086 4.745-5.029z" fill="#f2bb88"/><path d="m205.351 170.343c-1.388 4.371-1.616 14.287-3.272 18.244-4.802 11.472-11.184 20.982-21.778 27.233-14.53 8.573-22.972 38.6-22.972 38.6-18.992 0-27.451-28.373-27.451-47.844 0-45.41 27.685-68.68 56.417-68.461 3.511.027 7.115.476 10.773 1.556 1.998.59 4.344 3.099 6.368 4.099 1.692-1.793 3.119-5.226 4.938-6.836 16.609-14.695 38.321-21.769 61.381-21.641 9.538.053 17.753 2.821 27.487 5.308 69.941 17.87 82.451 116.338 43.999 130.204 0 0-.72-4.337-1.657-7.249-3.375-10.491-10.783-20.504-20.437-26.813-28.985-18.944-59.465 6.815-106.14-34.644-2.104-1.87-5.483-9.602-7.656-11.756z" fill="#7a6d79"/><path d="m341.598 254.417s-.061-.915-.177-2.084c-.277-2.915-.9-5.868-1.846-8.775 20.687-30.738 3.83-109.118-56.162-124.444-7.306-1.869-14.635-3.053-21.871-3.553 12.097-.861 24.701.346 37.252 3.553 69.943 17.872 81.256 121.438 42.804 135.303z" fill="#685e68"/><g><path d="m145.324 324.255c0-17.652-2.383-35.085-12.868-47.659-13.298-15.947-33.317-26.096-55.706-26.096-40.041 0-72.5 32.459-72.5 72.5 0 10.6 2.275 20.668 6.363 29.744 3.646 8.094 10.807 14.984 17.01 21.171 13.115 13.082 30.438 18.383 50.426 18.383 40.04 0 67.275-28.002 67.275-68.043z" fill="#b3e59f"/><path d="m149.25 323c0 40.04-32.46 72.5-72.5 72.5-29.84 0-55.48-18.03-66.59-43.8 13.29 15.2 32.82 24.8 54.59 24.8 40.04 0 72.5-32.46 72.5-72.5 0-10.2-2.11-19.9-5.91-28.7 11.15 12.75 17.91 29.43 17.91 47.7z" fill="#95d6a4"/><g><g><path d="m77.253 365.292v-.504" fill="#faf8f8"/></g></g></g><g><path d="m401.654 494.353c4.783-.011 8.395-4.343 7.545-9.05l-8.893-27.841c-4.314-24.504-18.453-39.582-42.292-46.696l-23.166-5.932c-5.654-1.686-7.042-4.299-7.452 1.587-.104 1.499-5.786 2.729-5.933 4.461-1.779 20.959-6.945 57.96-21.89 86.619l97.665-.225z" fill="#f5de46"/><path d="m321.458 410.881 25.139 7.496c23.839 7.115 41.336 26.755 45.65 51.259l4.99 27.638 7.616-.018c4.788-.011 8.397-4.346 7.549-9.047l-5.581-30.903c-4.314-24.504-21.811-44.145-45.65-51.259l-27.5-8.198c-5.652-1.685-11.422 2.293-11.831 8.181-.105 1.5-.232 3.122-.382 4.851z" fill="#f3d332"/></g></g><g><g><path d="m213.009 182.098c-1.535-1.361-3.087-2.796-4.655-4.308-.811-.781-2.166-.446-2.52.623-1.167 3.527-2.398 6.929-3.753 10.176l-5.014-48.91c1.528.447 3.065 1.005 4.607 1.69.877.389 1.899.17 2.571-.514 1.339-1.362 2.718-2.671 4.134-3.914z" fill="#685e68"/></g><g fill="#f2bb88"><path d="m293.202 300.751c-1.272 0-2.563-.324-3.743-1.006l-19.918-11.5c-2.32-1.34-3.75-3.815-3.75-6.495s1.43-5.155 3.75-6.495l19.918-11.5c3.585-2.069 8.174-.843 10.245 2.745 2.071 3.587.842 8.174-2.745 10.245l-8.668 5.005 8.668 5.005c3.587 2.071 4.816 6.658 2.745 10.245-1.389 2.406-3.91 3.751-6.502 3.751z"/><path d="m204.298 300.751c-2.592 0-5.112-1.345-6.502-3.751-2.071-3.587-.842-8.174 2.745-10.245l8.668-5.005-8.668-5.005c-3.587-2.071-4.816-6.658-2.745-10.245 2.069-3.589 6.658-4.815 10.245-2.745l19.918 11.5c2.32 1.34 3.75 3.815 3.75 6.495s-1.43 5.155-3.75 6.495l-19.918 11.5c-1.181.682-2.471 1.006-3.743 1.006z"/><path d="m256.75 348h-16c-4.143 0-7.5-3.357-7.5-7.5s3.357-7.5 7.5-7.5h16c4.143 0 7.5 3.357 7.5 7.5s-3.357 7.5-7.5 7.5z"/><path d="m248.75 317.26c-4.086 0-8.173-1.161-11.659-3.485-3.447-2.298-4.379-6.954-2.082-10.4 2.298-3.448 6.955-4.377 10.4-2.082 1.904 1.27 4.777 1.27 6.682 0 3.446-2.294 8.103-1.366 10.4 2.082 2.297 3.446 1.365 8.103-2.082 10.4-3.486 2.324-7.573 3.485-11.659 3.485z"/></g><path d="m73.039 91.77c-4.143 0-7.5-3.357-7.5-7.5v-18.427c0-4.143 3.357-7.5 7.5-7.5 2.801 0 5.407-1.121 7.34-3.156 1.931-2.034 2.914-4.702 2.768-7.514-.272-5.261-4.619-9.465-9.896-9.571-.068-.001-.139-.002-.207-.002-5.04 0-9.331 3.707-10.028 8.7-.064.466-.098.943-.098 1.421 0 4.143-3.357 7.5-7.5 7.5s-7.5-3.357-7.5-7.5c0-1.171.081-2.347.242-3.496 1.732-12.412 12.38-21.625 24.88-21.625.171 0 .342.002.514.006 13.1.264 23.894 10.713 24.573 23.79.36 6.96-2.079 13.572-6.87 18.619-2.96 3.117-6.672 5.401-10.718 6.673v12.082c0 4.142-3.357 7.5-7.5 7.5z" fill="#faf8f8"/><path d="m73.254 122.792c-4.143 0-7.5-3.357-7.5-7.5v-.504c0-4.143 3.357-7.5 7.5-7.5s7.5 3.357 7.5 7.5v.504c0 4.143-3.358 7.5-7.5 7.5z" fill="#faf8f8"/><circle cx="394.25" cy="72" fill="#7a6d79" r="7.5"/><circle cx="424.25" cy="72" fill="#7a6d79" r="7.5"/><circle cx="454.25" cy="72" fill="#7a6d79" r="7.5"/><path d="m413.039 279.77c-4.143 0-7.5-3.357-7.5-7.5v-18.427c0-4.143 3.357-7.5 7.5-7.5 2.801 0 5.407-1.121 7.34-3.156 1.931-2.034 2.914-4.702 2.768-7.514-.272-5.261-4.619-9.465-9.896-9.571-.068-.001-.139-.002-.207-.002-5.04 0-9.331 3.707-10.028 8.7-.064.466-.098.943-.098 1.421 0 4.143-3.357 7.5-7.5 7.5s-7.5-3.357-7.5-7.5c0-1.171.081-2.347.242-3.496 1.755-12.581 12.642-21.897 25.394-21.619 13.1.264 23.894 10.713 24.573 23.79.36 6.96-2.079 13.572-6.87 18.619-2.96 3.117-6.672 5.401-10.718 6.673v12.082c0 4.142-3.357 7.5-7.5 7.5z" fill="#faf8f8"/><path d="m77.253 365.292v-.504" fill="#faf8f8"/><path d="m77.254 372.792c-4.143 0-7.5-3.357-7.5-7.5v-.504c0-4.143 3.357-7.5 7.5-7.5s7.5 3.357 7.5 7.5v.504c0 4.143-3.358 7.5-7.5 7.5z" fill="#faf8f8"/><path d="m77.25 342c-4.143 0-7.5-3.357-7.5-7.5v-54c0-4.143 3.357-7.5 7.5-7.5s7.5 3.357 7.5 7.5v54c0 4.143-3.357 7.5-7.5 7.5z" fill="#faf8f8"/><circle cx="394.25" cy="373.5" fill="#7a6d79" r="7.5"/><circle cx="424.25" cy="373.5" fill="#7a6d79" r="7.5"/><circle cx="454.25" cy="373.5" fill="#7a6d79" r="7.5"/></g></g></svg>